<svg xmlns="http://www.w3.org/2000/svg"  viewBox="0 0 100 100" width="50px" height="50px"><circle cx="50" cy="50" r="37" fill="#fce0a2"/><circle cx="13" cy="29" r="2" fill="#ee3e54"/><circle cx="77" cy="13" r="1" fill="#f1bc19"/><circle cx="83" cy="15" r="4" fill="#f1bc19"/><circle cx="87" cy="24" r="2" fill="#ee3e54"/><circle cx="81" cy="76" r="2" fill="#fbcd59"/><circle cx="15" cy="63" r="4" fill="#fbcd59"/><circle cx="25" cy="87" r="2" fill="#ee3e54"/><circle cx="18.5" cy="53.5" r="2.5" fill="#fff"/><circle cx="21" cy="67" r="1" fill="#f1bc19"/><circle cx="80" cy="34" r="1" fill="#fff"/><path fill="#1e65d6" d="M28.005,65.001l-0.004-30c0-3.866,3.134-7.001,7-7.001H65c3.866,0,7,3.134,7,7v30 c0,3.866-3.134,7-7,7H35.005C31.139,72,28.005,68.867,28.005,65.001z"/><path fill="#472b29" d="M65,28.4c3.639,0,6.6,2.961,6.6,6.6v30c0,3.639-2.961,6.6-6.6,6.6H35c-3.639,0-6.6-2.961-6.6-6.6V35 c0-3.639,2.961-6.6,6.6-6.6H65 M65,27H35c-4.418,0-8,3.582-8,8v30c0,4.418,3.582,8,8,8h30c4.418,0,8-3.582,8-8V35 C73,30.582,69.418,27,65,27L65,27z"/><path fill="#472b29" d="M64.5,70h-5c-0.276,0-0.5-0.224-0.5-0.5s0.224-0.5,0.5-0.5h5c2.481,0,4.5-2.019,4.5-4.5v-29 c0-2.481-2.019-4.5-4.5-4.5h-29c-2.481,0-4.5,2.019-4.5,4.5v3c0,0.276-0.224,0.5-0.5,0.5S30,38.776,30,38.5v-3 c0-3.033,2.468-5.5,5.5-5.5h29c3.032,0,5.5,2.467,5.5,5.5v29C70,67.533,67.532,70,64.5,70z"/><path fill="#472b29" d="M56.5,70h-2c-0.276,0-0.5-0.224-0.5-0.5s0.224-0.5,0.5-0.5h2c0.276,0,0.5,0.224,0.5,0.5 S56.776,70,56.5,70z"/><path fill="#472b29" d="M51.5,70h-16c-3.032,0-5.5-2.467-5.5-5.5v-10c0-0.276,0.224-0.5,0.5-0.5s0.5,0.224,0.5,0.5v10 c0,2.481,2.019,4.5,4.5,4.5h16c0.276,0,0.5,0.224,0.5,0.5S51.776,70,51.5,70z"/><path fill="#472b29" d="M30.5,48c-0.276,0-0.5-0.224-0.5-0.5v-6c0-0.276,0.224-0.5,0.5-0.5s0.5,0.224,0.5,0.5v6 C31,47.776,30.776,48,30.5,48z"/><path fill="#f8e55b" d="M43.763,47.148c-0.082,0.165-0.082,0.325-0.082,0.489V49.7c0,0,1.106-1.436,1.359-1.777 c0.193-0.253,0.429-0.611,0.429-0.776h3.609c-0.247,0.165-0.523,0.462-0.748,0.738c-0.198,0.242-1.32,1.612-1.32,1.612 s1.667,2.537,1.881,2.861c0.121,0.176,0.253,0.341,0.407,0.489h-4.153c0-0.165-0.16-0.501-0.335-0.764 c-0.176-0.264-1.128-1.711-1.128-1.711v1.986c0,0.165,0,0.325,0.082,0.489h-3.461c0.082-0.165,0.082-0.325,0.082-0.489v-4.721 c0-0.165,0-0.325-0.082-0.489L43.763,47.148L43.763,47.148z"/><path fill="#472b29" d="M49.077,47.147h0.005 M49.077,47.147c-0.247,0.165-0.523,0.462-0.748,0.738 c-0.198,0.242-1.32,1.612-1.32,1.612s1.667,2.537,1.881,2.861c0.121,0.176,0.253,0.341,0.407,0.489h-4.153 c0-0.165-0.16-0.501-0.335-0.764s-1.128-1.711-1.128-1.711v1.986c0,0.165,0,0.325,0.082,0.489h-3.461 c0.082-0.165,0.082-0.325,0.082-0.489v-4.721c0-0.165,0-0.325-0.082-0.489h3.461v0.001c-0.082,0.165-0.082,0.325-0.082,0.489V49.7 c0,0,1.106-1.436,1.359-1.777c0.193-0.253,0.429-0.611,0.429-0.776H49.077 M49.082,46.647h-0.005h-3.609 c-0.261,0-0.475,0.2-0.498,0.455c-0.026,0.069-0.13,0.257-0.329,0.518c-0.085,0.114-0.262,0.347-0.461,0.607v-0.59 c0-0.136,0.001-0.209,0.03-0.267c0.077-0.155,0.069-0.339-0.023-0.486c-0.091-0.147-0.252-0.237-0.425-0.237l-3.461-0.001 c-0.173,0-0.334,0.09-0.425,0.237s-0.099,0.331-0.022,0.487c0.028,0.056,0.029,0.13,0.029,0.266v4.721 c0,0.136-0.001,0.209-0.03,0.267c-0.077,0.155-0.069,0.339,0.023,0.486c0.091,0.147,0.252,0.237,0.425,0.237h3.461 c0.173,0,0.334-0.09,0.425-0.237c0.091-0.147,0.099-0.331,0.022-0.486c-0.028-0.056-0.029-0.13-0.029-0.266V52.04 c0.096,0.145,0.173,0.261,0.211,0.32c0.158,0.236,0.244,0.451,0.253,0.509c0,0.276,0.223,0.478,0.499,0.478h4.153 c0.204,0,0.387-0.124,0.464-0.313c0.076-0.189,0.03-0.406-0.117-0.547c-0.115-0.111-0.227-0.246-0.342-0.413 c-0.163-0.247-1.223-1.859-1.673-2.544l1.088-1.328c0.24-0.293,0.461-0.515,0.625-0.629c0.143-0.088,0.239-0.246,0.239-0.425 C49.58,46.871,49.359,46.647,49.082,46.647L49.082,46.647z M49.077,47.647h0.005H49.077L49.077,47.647z"/><path fill="#f8e55b" d="M56.577,47.148h-6.679c0.082,0.165,0.082,0.325,0.082,0.489v4.721c0,0.165,0,0.325-0.082,0.489 h6.679v-1.579c-0.165,0.082-0.325,0.082-0.489,0.082h-2.811v-0.748h2.701v-1.205h-2.701v-0.753h2.811c0.165,0,0.325,0,0.489,0.077 L56.577,47.148z"/><path fill="#472b29" d="M56.577,47.148v1.574c-0.164-0.077-0.324-0.077-0.489-0.077h-2.811v0.753h2.701v1.205h-2.701v0.748 h2.811c0.164,0,0.324,0,0.489-0.082v1.579h-6.679c0.082-0.164,0.082-0.324,0.082-0.489v-4.721c0-0.164,0-0.324-0.082-0.489H56.577 M56.577,46.648h-6.679c-0.173,0-0.334,0.09-0.425,0.237c-0.091,0.147-0.1,0.331-0.023,0.486c0.029,0.057,0.03,0.131,0.03,0.267 v4.721c0,0.136-0.001,0.209-0.029,0.266c-0.077,0.155-0.069,0.339,0.022,0.486c0.091,0.147,0.252,0.237,0.425,0.237h6.679 c0.276,0,0.5-0.224,0.5-0.5v-1.579c0-0.173-0.09-0.334-0.237-0.425c-0.08-0.05-0.172-0.075-0.263-0.075 c-0.045,0-0.09,0.006-0.134,0.018c0.023-0.057,0.035-0.119,0.035-0.184v-1.205c0-0.069-0.014-0.135-0.04-0.195 c0.045,0.013,0.092,0.02,0.139,0.02c0.094,0,0.187-0.026,0.268-0.078c0.145-0.092,0.232-0.251,0.232-0.422v-1.574 C57.077,46.872,56.853,46.648,56.577,46.648L56.577,46.648z"/><path fill="#f8e55b" d="M65.831,52.358c-0.12-0.319-1.666-4.358-1.81-4.715c-0.06-0.164-0.148-0.324-0.104-0.489h-4.825 c0.022,0.164-0.039,0.324-0.099,0.489l-1.711,4.721c-0.055,0.182-0.143,0.346-0.259,0.489h2.856 c-0.022-0.164,0.038-0.324,0.094-0.489c0.055-0.165,0.116-0.325,0.116-0.325l0.033-0.088h2.085l0.033,0.082 c0.077,0.193,0.132,0.325,0.132,0.325c0.066,0.164,0.126,0.324,0.11,0.489h3.62C65.979,52.705,65.886,52.54,65.831,52.358z M60.554,50.746c0.247-0.688,0.462-1.265,0.479-1.32c0.044-0.121,0.077-0.248,0.099-0.374c0.028,0.127,0.066,0.253,0.11,0.374 l0.506,1.32H60.554z"/><path fill="#472b29" d="M63.917,47.154h0.005 M63.917,47.154c-0.044,0.165,0.044,0.325,0.104,0.489 c0.143,0.357,1.689,4.396,1.81,4.715c0.055,0.182,0.148,0.347,0.27,0.489h-3.62c0.016-0.165-0.044-0.325-0.11-0.489 c0,0-0.055-0.132-0.132-0.325l-0.033-0.082H60.12l-0.033,0.088c0,0-0.06,0.16-0.116,0.325c-0.055,0.165-0.116,0.325-0.094,0.489 h-2.856c0.116-0.143,0.203-0.308,0.259-0.489l1.711-4.721c0.06-0.165,0.121-0.325,0.099-0.489H63.917 M60.554,50.746h1.194 l-0.506-1.32c-0.044-0.121-0.082-0.247-0.11-0.374c-0.022,0.126-0.055,0.253-0.099,0.374 C61.017,49.481,60.802,50.058,60.554,50.746 M63.922,46.654h-0.005h-4.825c-0.144,0-0.281,0.062-0.376,0.171 c-0.095,0.108-0.138,0.253-0.119,0.396c0.005,0.037-0.039,0.156-0.067,0.235l-1.718,4.738c-0.044,0.143-0.101,0.251-0.178,0.346 c-0.121,0.15-0.145,0.356-0.062,0.53c0.083,0.174,0.259,0.284,0.451,0.284h2.856c0.144,0,0.281-0.062,0.376-0.171 c0.095-0.109,0.138-0.253,0.119-0.396c-0.005-0.036,0.034-0.15,0.059-0.226c0.013-0.039,0.026-0.076,0.038-0.11h1.397 c0.026,0.063,0.042,0.101,0.042,0.101c0.027,0.068,0.078,0.196,0.073,0.247c-0.014,0.14,0.032,0.28,0.127,0.385 c0.095,0.105,0.229,0.164,0.371,0.164h3.62c0.195,0,0.372-0.113,0.454-0.29c0.082-0.177,0.053-0.385-0.073-0.534 c-0.08-0.094-0.138-0.198-0.172-0.311c-0.097-0.26-1.674-4.381-1.824-4.755l-0.034-0.088c-0.014-0.035-0.033-0.084-0.042-0.113 c0.007-0.033,0.01-0.067,0.01-0.102c0,0,0,0,0,0c0.01-0.118-0.027-0.227-0.104-0.327c-0.088-0.115-0.223-0.166-0.366-0.172 C63.94,46.654,63.931,46.654,63.922,46.654L63.922,46.654z M63.917,47.654h0.005H63.917L63.917,47.654z"/><path fill="#f8e55b" d="M38.581,47.637c0-0.165,0-0.325,0.082-0.489H34.9c0.082,0.165,0.082,0.325,0.082,0.489v4.721 c0,0.165,0,0.325-0.082,0.489h3.764c-0.082-0.165-0.082-0.325-0.082-0.489L38.581,47.637L38.581,47.637z"/><path fill="#472b29" d="M38.663,47.148c-0.082,0.164-0.082,0.324-0.082,0.489h0.001v4.721c0,0.164,0,0.324,0.082,0.489H34.9 c0.082-0.164,0.082-0.324,0.082-0.489v-4.721c0-0.164,0-0.324-0.082-0.489H38.663 M38.663,46.648H34.9 c-0.173,0-0.334,0.09-0.425,0.237c-0.091,0.147-0.1,0.331-0.023,0.486c0.029,0.057,0.03,0.131,0.03,0.267v4.721 c0,0.136-0.001,0.209-0.029,0.266c-0.077,0.155-0.069,0.339,0.022,0.486c0.091,0.147,0.252,0.237,0.425,0.237h3.764 c0.173,0,0.334-0.09,0.425-0.237c0.091-0.147,0.1-0.331,0.023-0.486c-0.029-0.057-0.03-0.131-0.03-0.267v-4.721 c-0.001-0.144,0.002-0.212,0.029-0.266c0.078-0.155,0.069-0.339-0.022-0.486C38.997,46.738,38.836,46.648,38.663,46.648 L38.663,46.648z M38.663,47.648h0.005H38.663L38.663,47.648z"/></svg>